<svg xmlns="http://www.w3.org/2000/svg" viewBox="0 0 13 13"><defs><style>.cls-1,.cls-2{fill:#a9b7c6;}.cls-1{fill-rule:evenodd;}</style></defs><g id="Layer_2" data-name="Layer 2"><g id="Layer_1-2" data-name="Layer 1"><path class="cls-1" d="M13,1a1,1,0,0,0-1-1H1A1,1,0,0,0,0,1V12a1,1,0,0,0,1,1H12a1,1,0,0,0,1-1ZM6.24,3.64v2.6H3.64V3.64Zm3.12,0v2.6H6.76V3.64Zm3.12,0v2.6H9.88V3.64ZM3.12,6.24H.52V3.64h2.6Zm-2.6.52h2.6v2.6H.52Zm3.12,0h2.6v2.6H3.64Zm2.6,3.12v2.6H3.64V9.88Zm.52,0h2.6v2.6H6.76Zm0-.52V6.76h2.6v2.6Zm3.12-2.6h2.6v2.6H9.88ZM1,.52H12a.52.52,0,0,1,.52.52V3.12H.52V1A.52.52,0,0,1,1,.52ZM.52,12V9.88h2.6v2.6H1A.52.52,0,0,1,.52,12ZM12,12.48H9.88V9.88h2.6V12A.52.52,0,0,1,12,12.48Z"/><rect class="cls-2" x="4" y="4" width="1.88" height="1.88"/><rect class="cls-2" x="4.01" y="7.13" width="1.88" height="1.88"/><rect class="cls-2" x="4.01" y="10.23" width="1.88" height="1.88"/></g></g></svg>